<svg width="160" height="128" viewBox="0 0 160 128" fill="none" xmlns="http://www.w3.org/2000/svg">
<rect x="0.5" y="0.5" width="159" height="127" fill="#FF90BC"/>
<rect x="0.5" y="0.5" width="159" height="127" stroke="black"/>
<path d="M72.018 12.9945C64.8675 14.1083 58.8321 17.3083 53.664 22.7183C51.1684 25.3171 49.5401 27.6508 47.9826 30.8508C44.3543 38.2586 43.664 46.9569 46.1065 54.4C46.8498 56.6453 48.0357 59.1735 47.8764 58.1658C47.8233 57.8299 47.6463 56.7868 47.5047 55.8674C47.0622 53.2332 46.9914 47.9116 47.3277 45.2597C47.6817 42.6078 48.4782 39.284 49.31 36.968C53.1153 26.4663 61.8056 18.1569 72.7083 14.5857C74.779 13.9138 78.0888 13.0829 78.7083 13.0829C78.9206 13.0829 79.1507 12.9945 79.2038 12.9061C79.3631 12.6409 73.841 12.7116 72.018 12.9945Z" fill="white"/>
<path d="M106.814 19.5536C103.894 21.1624 101.239 22.7359 100.92 23.0365C99.7875 24.1149 99.2211 25.989 99.4866 27.7923C99.5574 28.305 99.6636 28.8531 99.7344 29.0122C99.8229 29.242 99.3273 29.5779 97.3804 30.6564C96.0176 31.3989 94.8317 32 94.7432 32C94.6547 32 94.3539 29.5072 94.0884 26.4663C93.522 20.3845 93.3804 19.7127 92.3539 19.0939C91.4335 18.5282 90.4777 18.6343 88.8317 19.4652C87.9999 19.8718 87.4335 20.2608 87.4866 20.3845C87.699 20.9503 88.5485 24.4155 88.4777 24.4508C88.4069 24.5039 78.46 29.684 70.9379 33.5735C69.2211 34.4752 67.7875 35.1293 67.7344 35.0586C67.699 34.9879 67.5043 34.1392 67.3273 33.2022C67.168 32.2475 66.9556 31.3812 66.8848 31.2752C66.7963 31.1337 66.0176 31.4873 64.407 32.3713C61.7875 33.821 61.2388 34.3691 61.2388 35.5713C61.2388 36.2431 64.5308 59.4387 64.6901 59.8984C64.7786 60.1282 65.699 59.6862 68.4954 58.1127C72.0884 56.0796 76.814 53.5337 77.1503 53.4453C77.6813 53.3216 78.8494 53.8873 78.8494 54.2763C78.8494 54.4177 78.6901 54.5591 78.4954 54.5945C78.3008 54.6475 71.7167 58.2011 63.8583 62.5149C56.0176 66.8287 49.4866 70.4 49.345 70.4531C49.0441 70.5768 48.5485 69.6575 48.8317 69.4984C48.9202 69.4453 50.6016 68.526 52.5485 67.4475C54.5131 66.3868 56.1061 65.4497 56.1061 65.3967C56.1061 65.2376 54.8848 64.7426 53.9291 64.5127C53.4335 64.389 52.3716 64.3359 51.3627 64.389C47.2742 64.6011 43.6636 66.9171 41.9468 70.4177C41.2742 71.779 41.168 72.1503 41.0972 73.4232C41.0441 74.5901 41.0972 75.0674 41.3981 75.863C42.3893 78.4796 44.814 79.9116 48.2123 79.9116C51.1149 79.9116 53.7344 78.8332 56.0176 76.7116C57.9999 74.8376 58.9556 72.9105 59.0087 70.5415L59.0618 69.2155L62.1946 67.4829C63.9291 66.5282 65.4158 65.8033 65.4866 65.8917C65.5574 65.9624 65.8229 67.5183 66.0707 69.3569C66.3362 71.1779 66.6193 72.8221 66.7255 73.0166C66.8317 73.1934 67.1857 73.5647 67.5397 73.8299C68.7963 74.7845 68.5131 74.8729 82.3893 68.8973C89.3096 65.9094 95.3096 63.2928 95.7521 63.0807C96.3362 62.7801 96.6547 62.4619 96.9379 61.8785L97.345 61.0829L96.2477 49.5028C95.6636 43.1381 95.1503 37.905 95.1326 37.8696C95.1149 37.852 92.0353 39.5138 88.3008 41.5823C84.1061 43.8807 81.3273 45.3127 81.0264 45.3127C80.5308 45.3127 79.8229 44.8177 79.8229 44.4818C79.8229 44.3757 84.7255 41.6 90.7078 38.3116L101.593 32.3359L102.708 33.2376C104.177 34.4221 105.398 34.8818 106.903 34.7934C108.018 34.7227 108.248 34.6166 113.345 31.8232C116.602 30.0199 118.779 28.7293 118.991 28.4287C119.398 27.8984 119.327 27.421 118.708 26.5017C118.018 25.4586 117.451 25.547 114.478 27.1912C109.734 29.8254 106.672 31.4696 106.531 31.4696C106.442 31.4696 106.212 31.3105 106.018 31.116C105.31 30.4089 105.522 30.179 108.018 28.8177C117.345 23.7083 116.708 24.1326 116.584 23.0188C116.478 22.0818 115.734 21.2155 115.044 21.2155C114.779 21.2155 112.283 22.4707 109.239 24.1326C106.283 25.7415 103.841 27.0497 103.805 27.0497C103.61 27.0497 103.009 26.2365 103.009 25.9713C103.009 25.7415 104.106 25.0519 106.779 23.5845C112.195 20.6144 113.593 19.8011 113.894 19.5006C114.672 18.7227 113.646 16.6188 112.478 16.6188C112.283 16.6188 109.734 17.9448 106.814 19.5536ZM91.3273 27.2265C91.3273 28.2343 91.6813 27.9868 86.814 30.5326C85.168 31.4166 79.6636 34.3337 74.6193 37.021C69.5574 39.726 65.3096 41.9713 65.1857 42.0243C64.991 42.095 64.9556 41.9359 64.991 41.1934L65.0441 40.274L69.9999 37.6221C72.7255 36.1724 76.8317 33.9801 79.1149 32.7426C88.4777 27.7216 91.0618 26.3426 91.2034 26.3426C91.2742 26.3426 91.3273 26.7315 91.3273 27.2265ZM91.3273 31.8586V32.7956L78.3893 39.6906C71.2742 43.474 65.345 46.6033 65.2034 46.6387C65.0087 46.6917 64.9556 46.4973 64.9556 45.8431V44.9945L76.1415 38.9834C82.3008 35.6774 88.1592 32.5127 89.1857 31.9647C90.23 31.4166 91.1149 30.9569 91.2034 30.9569C91.2742 30.9392 91.3273 31.3636 91.3273 31.8586ZM93.2742 41.9536V42.8729L80.3362 49.768C73.2388 53.5691 67.2919 56.6807 67.1503 56.716C66.8317 56.7868 66.7963 55.284 67.1326 55.0188C67.2388 54.9304 71.6813 52.526 76.991 49.6796C82.3008 46.8332 88.0707 43.7216 89.8229 42.7669C91.5751 41.8122 93.0618 41.0343 93.1503 41.0343C93.2211 41.0166 93.2742 41.4409 93.2742 41.9536ZM94.5662 52.526C94.4954 52.5967 89.6813 55.1779 83.8937 58.2542C78.1061 61.3481 72.2831 64.442 70.9379 65.1669C69.6105 65.8917 68.4777 66.4752 68.407 66.4752C68.3539 66.4752 68.3185 66.0685 68.3539 65.5735L68.407 64.6718L81.5043 57.6177L94.6016 50.5636L94.6547 51.4652C94.6901 51.9779 94.6547 52.4376 94.5662 52.526ZM94.6547 56.2564L94.6016 57.1757L90.2654 59.4917C74.637 67.8718 68.6016 71.0718 68.4777 71.0718C68.3893 71.0718 68.3185 70.6829 68.3185 70.2055V69.3569L78.814 63.7348C84.5662 60.6409 90.4423 57.4763 91.8583 56.716C93.2742 55.9558 94.4954 55.337 94.5662 55.337C94.637 55.337 94.6901 55.7437 94.6547 56.2564Z" fill="white"/>
<path d="M82.1238 17.1315C81.5044 17.326 76.5132 19.6951 72.1592 21.8696C68.6902 23.5846 68.4601 23.726 67.9645 24.5216C67.1681 25.7768 67.1504 26.2188 67.7875 29.4011C68.6902 33.9625 68.6902 33.9625 68.938 33.9094C69.0619 33.8741 73.2389 31.7525 78.2123 29.1713L87.2743 24.4862L87.1681 23.9205C87.115 23.6022 86.7787 22.3293 86.4424 21.0917C85.8229 18.8288 85.3628 17.9625 84.4955 17.3967C83.9999 17.0608 82.761 16.9194 82.1238 17.1315ZM82.7079 20.3669C83.1327 20.8619 83.0796 21.5161 82.5663 22.0111C81.7344 22.8597 80.5309 22.347 80.5309 21.1625C80.5309 19.9426 81.9114 19.4475 82.7079 20.3669ZM78.9026 22.0995C79.469 22.6299 79.4336 23.5492 78.8318 24.0266C78.5663 24.2387 78.2123 24.3978 78.0176 24.3978C77.5397 24.3978 76.8141 23.6022 76.8141 23.0719C76.8141 22.5061 77.5397 21.7459 78.1061 21.7459C78.3362 21.7459 78.6902 21.905 78.9026 22.0995ZM75.3982 24.0442C75.8583 24.5039 75.8406 25.105 75.3805 25.7061C74.6725 26.6078 73.2743 26.0774 73.2743 24.8929C73.2743 24.5923 73.3982 24.1857 73.5751 24.0089C73.9645 23.5846 74.938 23.5846 75.3982 24.0442ZM71.5751 25.8299C72.4601 26.5371 71.9645 28.1105 70.8495 28.1105C70.3185 28.1105 69.5574 27.368 69.5574 26.873C69.5574 26.3249 69.876 25.8122 70.3185 25.6354C70.9026 25.4056 71.0619 25.4232 71.5751 25.8299Z" fill="white"/>
<path d="M113.416 39.4254C113.611 40.716 113.54 47.5403 113.31 49.0608C112.991 51.147 112.248 54.3116 111.664 56.1326C111.044 58.0066 109.239 61.7724 108.035 63.6464C101.044 74.6077 88.7257 80.7779 75.5929 79.8939C72.9027 79.7171 69.3098 79.0807 67.1682 78.4088C66.3894 78.179 65.6814 77.9669 65.5752 77.9669C65.2744 77.9669 67.0797 79.0453 68.4071 79.6641C77.1328 83.695 87.7522 83.4652 96.5487 79.0807C103.327 75.7039 108.566 70.4707 111.858 63.7348C114.23 58.926 115.221 54.5768 115.221 49.1492C115.221 45.6486 114.496 41.3171 113.558 39.2309L113.292 38.6298L113.416 39.4254Z" fill="white"/>
<path d="M37.3452 93.7901V99.7481L40.3187 99.6774C43.1859 99.6243 43.3098 99.6066 44.301 99.1116C46.3364 98.0685 47.4691 96.2298 47.4691 93.8961C47.4868 92.0928 46.885 90.6785 45.6284 89.547C44.2479 88.3094 43.2213 88.0089 40.0532 87.9028L37.3452 87.8321V93.7901ZM43.2921 90.4663C44.3718 91.0144 44.9735 92.0221 45.0797 93.4188C45.2036 94.8862 44.8496 95.9116 43.8939 96.7779C43.0797 97.5205 42.124 97.8033 40.7434 97.7326L39.7346 97.6796L39.6815 93.8077L39.6461 89.9359L41.1151 90.0243C42.124 90.0774 42.8142 90.2188 43.2921 90.4663Z" fill="white"/>
<path d="M49.3804 93.7901V99.7127H50.5308H51.6813V93.7901V87.8674H50.5308H49.3804V93.7901Z" fill="white"/>
<path d="M57.1859 88.1856C56.9912 88.5392 53.2744 99.3945 53.2744 99.589C53.2744 99.6597 53.8231 99.7127 54.4957 99.7127H55.7169L56.1063 98.5635C56.3364 97.874 56.6018 97.3967 56.7788 97.3613C56.9381 97.3083 57.9293 97.2729 58.9735 97.2553C61.1328 97.2199 61.2036 97.2729 61.6107 98.8641C61.8054 99.695 61.8231 99.7127 62.5487 99.7481C63.2921 99.7657 64.301 99.7127 64.3718 99.642C64.4072 99.6243 63.5222 96.9724 62.4249 93.7724L60.4426 87.9558L58.9027 87.9028C57.5576 87.8674 57.3452 87.9028 57.1859 88.1856ZM59.6815 92.9945C60.0532 94.1083 60.3541 95.0807 60.3541 95.1514C60.3541 95.2221 59.6815 95.2928 58.8496 95.2928C57.7877 95.2928 57.3452 95.2221 57.3452 95.0807C57.3452 94.5856 58.6726 90.8729 58.8319 90.926C58.9204 90.9613 59.3098 91.8983 59.6815 92.9945Z" fill="white"/>
<path d="M66.0178 88.7868C65.9824 92.8 66.0355 99.6067 66.0886 99.6597C66.2479 99.8188 72.1063 99.7127 72.7258 99.5359C74.301 99.1116 75.3983 97.768 75.3983 96.2299C75.3983 95.3636 75.0267 94.3381 74.5134 93.7901C74.1594 93.4188 74.1594 93.4188 74.5134 92.7293C75.5045 90.7846 74.3895 88.5216 72.2125 88.0619C71.7169 87.9558 70.124 87.8674 68.6727 87.8674H66.0178V88.7868ZM72.124 90.431C72.3718 90.6608 72.5665 91.0144 72.5665 91.2265C72.5665 91.421 72.3718 91.7923 72.124 92.0221C71.7346 92.4288 71.5576 92.4641 70.0001 92.4641H68.3187V91.2265V89.989H70.0001C71.5576 89.989 71.7346 90.0243 72.124 90.431ZM72.5134 94.9746C73.0267 95.558 73.1329 95.9823 72.9028 96.6542C72.6196 97.5381 72.0001 97.768 70.0001 97.768H68.3187V96.1768V94.5857H70.2302C72.0001 94.5857 72.1771 94.621 72.5134 94.9746Z" fill="white"/>
<path d="M77.2924 87.9912C77.2216 88.0442 77.1685 90.7138 77.1685 93.9138V99.7127H78.1419C78.6729 99.7304 80.3897 99.7304 81.9472 99.7304C83.5047 99.7304 84.8676 99.7304 84.9561 99.7127C85.0623 99.7127 85.1331 99.2707 85.1331 98.7404V97.768H82.3897H79.6463V96.3536V94.9392H82.2127H84.7791V93.8785V92.8177H82.2127H79.6463V91.4033V89.989H82.3897H85.1331V88.9282V87.8674H81.2747C79.1508 87.8674 77.3454 87.9205 77.2924 87.9912Z" fill="white"/>
<path d="M85.9117 88.1149C85.8586 88.2387 85.8409 88.6984 85.8763 89.1227L85.9294 89.9006L87.4338 89.989L88.9383 90.0774L88.9914 94.8685L89.0268 99.6774L89.4338 99.7481C89.6462 99.7834 90.1595 99.7834 90.5666 99.7481L91.3277 99.6774L91.3631 94.8685L91.4161 90.0774L92.8852 90.0243L94.3365 89.9713V88.9282V87.8674H90.1772C86.779 87.8674 85.9825 87.9205 85.9117 88.1149Z" fill="white"/>
<path d="M94.9381 88.1149C94.885 88.2387 94.8673 88.6984 94.9027 89.1227L94.9558 89.9006L96.4602 89.989L97.9646 90.0774L98.0177 94.8862L98.0531 99.7127H99.2036H100.354L100.389 94.8862L100.443 90.0774L101.912 90.0243L103.363 89.9713V88.9282V87.8674H99.2036C95.8053 87.8674 95.0089 87.9205 94.9381 88.1149Z" fill="white"/>
<path d="M104.903 87.9912C104.832 88.0442 104.779 90.7138 104.779 93.9138V99.7127H105.221C105.469 99.7127 106.903 99.7304 108.407 99.7304C109.912 99.7304 111.504 99.7127 111.947 99.7127H112.743V98.7404V97.768H110H107.257V96.3536V94.9392H109.823H112.389V93.8785V92.8177H109.823H107.257V91.4033V89.989H110H112.743V88.9282V87.8674H108.885C106.761 87.8674 104.956 87.9205 104.903 87.9912Z" fill="white"/>
<path d="M114.496 88.6453C114.496 89.0873 114.496 90.7669 114.496 92.3757C114.496 93.9845 114.496 96.2829 114.496 97.4851L114.513 99.6774L115.487 99.7481C116.018 99.7658 116.549 99.7658 116.637 99.7481C116.743 99.7127 116.814 98.8111 116.814 97.5735V95.4696H117.77H118.743L119.929 97.5735C120.584 98.7403 121.239 99.7127 121.398 99.7481C121.558 99.7834 122.142 99.7658 122.69 99.7127L123.699 99.6243L122.478 97.5028C121.805 96.3359 121.239 95.3282 121.239 95.2398C121.239 95.1691 121.593 94.7801 122.018 94.3558C123.929 92.5171 123.416 89.2995 121.009 88.2917C120.425 88.0442 119.628 87.9558 117.398 87.9028L114.513 87.8321L114.496 88.6453ZM119.982 90.2542C120.991 90.7669 121.133 92.2873 120.23 92.9945C119.858 93.2774 119.504 93.3481 118.301 93.3481H116.814V91.6685V89.989H118.142C118.973 89.989 119.681 90.095 119.982 90.2542Z" fill="white"/>
</svg>
